<svg width="204" height="24" viewBox="0 0 204 24" fill="none" xmlns="http://www.w3.org/2000/svg">
<path d="M18.3885 17.9471V13.3434H11.3325V11.1909H20.5065V18.6544C18.4965 21.6149 15.1365 23.5539 11.3325 23.5539C5.18253 23.5539 0.196533 18.4868 0.196533 12.2366C0.196533 5.98653 5.18253 0.919434 11.3325 0.919434V3.06884C6.34953 3.06884 2.31153 7.17253 2.31153 12.2366C2.31153 17.3008 6.34953 21.4045 11.3325 21.4045C14.1885 21.4045 16.7355 20.0539 18.3885 17.9471Z" fill="#1676FF"/>
<path d="M34.763 12.6301C37.193 12.6301 39.188 10.6026 39.188 8.12997C39.188 5.66037 37.193 3.62987 34.763 3.62987H32.732H31.676H26.675V1.48047H31.676H32.732H34.763C38.36 1.48047 41.306 4.47137 41.306 8.12997C41.306 9.86167 40.646 11.441 39.569 12.6301C38.471 13.8405 36.938 14.6393 35.228 14.7643H32.732C32.615 14.7643 32.498 14.7704 32.384 14.7795C30.488 14.9503 28.958 16.5052 28.79 18.432C28.781 18.5479 28.775 18.6668 28.775 18.7857V23.048H26.675V18.7857C26.675 15.3984 29.402 12.6301 32.732 12.6301H34.763Z" fill="#1676FF"/>
<path d="M49.5733 15.7794C49.5733 16.8861 49.8882 17.9196 50.4312 18.7886C51.2232 20.0569 52.4982 20.9776 53.9922 21.2917C54.3612 21.3679 54.7363 21.4075 55.1113 21.4075C58.1713 21.4075 60.6463 18.8892 60.6463 15.7794C60.6463 10.2091 55.1352 9.8921 52.3752 6.5017C51.1992 5.0566 50.7433 3.3035 50.6353 1.4834H52.7502C52.8702 3.3462 53.4103 4.8493 55.0273 6.1176C57.1813 7.8036 59.5213 8.5689 61.2043 10.8646C62.2663 12.3128 62.7583 13.9805 62.7583 15.7794C62.7583 17.2916 62.3323 18.7581 61.5193 20.0233C60.6193 21.4228 59.3233 22.4716 57.8293 23.0478C56.9743 23.3771 56.0532 23.5539 55.1082 23.5539C54.1602 23.5539 53.2393 23.3771 52.3873 23.0478C50.8183 22.4411 49.4743 21.3221 48.5863 19.8496C47.8453 18.6239 47.4583 17.2245 47.4583 15.7794H49.5733Z" fill="#1676FF"/>
<path d="M68.9319 1.48291H76.3629H78.4809H85.9119V3.63541H78.4809V23.0473H76.3629V3.63541H68.9319V1.48291Z" fill="url(#paint0_linear_457_5465)"/>
<path d="M92.0745 12.2397C92.0745 5.98956 97.0605 0.922363 103.21 0.922363C109.36 0.922363 114.346 5.98956 114.346 12.2397C114.346 18.4898 109.36 23.557 103.21 23.557C97.0635 23.5539 92.0745 18.4868 92.0745 12.2397ZM112.231 12.2397C112.231 7.17556 108.193 3.07187 103.21 3.07187C98.2275 3.07187 94.1895 7.17556 94.1895 12.2397C94.1895 17.3038 98.2275 21.4076 103.21 21.4076C108.193 21.4045 112.231 17.3008 112.231 12.2397Z" fill="url(#paint1_linear_457_5465)"/>
<path d="M120.513 1.48291H127.944H130.062H137.493V3.63541H130.062V23.0473H127.944V3.63541H120.513V1.48291Z" fill="#1676FF"/>
<path d="M143.657 1.4834H158.015V3.6358H143.657V1.4834ZM143.657 13.3403V11.1878H155.897V13.3403H143.657ZM158.012 23.0478H143.654V20.8953H158.012V23.0478Z" fill="#1676FF"/>
<path d="M174.184 1.48291H178.54H180.637V3.61411H178.54H174.796C170.131 3.61411 166.3 7.50441 166.3 12.2484C166.3 16.9893 170.131 20.8827 174.796 20.8827H178.54V20.901H180.637V23.0321H178.54H174.796C168.964 23.0321 164.185 18.1784 164.185 12.2514C164.185 6.52571 168.634 1.80611 174.184 1.48291Z" fill="#1676FF"/>
<path d="M201.686 23.0478V13.3403H186.821V1.4834H188.939V11.1878H201.686V1.4834H203.804V23.0478H201.686ZM188.939 18.5477V17.1056H186.821V18.5477V23.0447H188.939V18.5477Z" fill="#1676FF"/>
<defs>
<linearGradient id="paint0_linear_457_5465" x1="68.9319" y1="12.2651" x2="86.5421" y2="12.2651" gradientUnits="userSpaceOnUse">
<stop/>
<stop offset="0.312471" stop-color="#666666"/>
</linearGradient>
<linearGradient id="paint1_linear_457_5465" x1="92.0745" y1="12.2397" x2="115.173" y2="12.2397" gradientUnits="userSpaceOnUse">
<stop/>
<stop offset="0.312471" stop-color="#666666"/>
</linearGradient>
</defs>
</svg>
